<?xml version="1.0" encoding="utf-8"?>
<!-- Generator: Adobe Illustrator 24.3.0, SVG Export Plug-In . SVG Version: 6.00 Build 0)  -->
<svg version="1.1" id="Ebene_1" xmlns="http://www.w3.org/2000/svg" x="0px" y="0px"
     viewBox="0 0 270 72" style="enable-background:new 0 0 270 72;" xml:space="preserve">
<style type="text/css">
	.st0{fill:#64378C;}
</style>
<g>
	<path class="st0" d="M171.81,57.03l-37.54-21.75l36.1-20.6c0.45-0.27,0.82-0.91,0.82-1.43V2.34c0-0.63-0.52-0.79-0.97-0.52
		L124.6,28.52V3.05c0-0.52-0.43-0.95-0.95-0.95h-9.59c-0.52,0-0.95,0.43-0.95,0.95v65.63c0,0.52,0.43,0.95,0.95,0.95h9.59
		c0.52,0,0.95-0.42,0.95-0.95V41.98l46.92,27.85c0.45,0.27,1.09,0.1,1.09-0.54l0.02-10.84C172.63,57.8,172.26,57.29,171.81,57.03"/>
	<path class="st0" d="M213.84,38.53l11.73-23.57l11.64,23.57H213.84z M265.97,68.58L232.76,2.91c-0.24-0.47-0.67-0.85-1.28-0.85
		h-10.82c-0.63,0-1.15,0.41-1.39,0.84l-34.12,65.61c-0.24,0.46,0.02,1.07,0.7,1.07h11.47c0.52,0,1.14-0.38,1.37-0.85l9.96-19.67
		h33.55l9.86,19.67c0.23,0.47,0.85,0.85,1.37,0.85h11.86C265.92,69.59,266.2,69.05,265.97,68.58"/>
	<path class="st0" d="M78.86,3.01c0-0.52,0.43-0.95,0.95-0.95h9.59c0.52,0,0.95,0.43,0.95,0.95v65.63c0,0.52-0.43,0.95-0.95,0.95
		H79.8c-0.52,0-0.95-0.43-0.95-0.95V3.01z M72.49,30.65H43.74V3.01c0-0.52-0.43-0.95-0.95-0.95H33.2c-0.52,0-0.95,0.43-0.95,0.95
		v27.63H3.52c-0.52,0-0.95,0.43-0.95,0.95v8.47c0,0.52,0.43,0.95,0.95,0.95h28.74v27.63c0,0.52,0.43,0.95,0.95,0.95h9.59
		c0.52,0,0.95-0.43,0.95-0.95V41.01h28.74c0.52,0,0.95-0.43,0.95-0.95v-8.47C73.43,31.07,73.01,30.65,72.49,30.65"/>
</g>
</svg>

